<svg version="1.1" xmlns="http://www.w3.org/2000/svg" viewBox="0 0 1469.0594960439869 760.2601598326651" width="4407.178488131961" height="2280.780479497995" filter="invert(93%) hue-rotate(180deg)">
  <!-- svg-source:excalidraw -->
  
  <defs>
    <style class="style-fonts">
      @font-face {
        font-family: "Virgil";
        src: url("https://excalidraw.com/Virgil.woff2");
      }
      @font-face {
        font-family: "Cascadia";
        src: url("https://excalidraw.com/Cascadia.woff2");
      }
    </style>
    
  </defs>
  <rect x="0" y="0" width="1469.0594960439869" height="760.2601598326651" fill="#ffffff"></rect><g stroke-linecap="round" transform="translate(933.0594960439869 10) rotate(0 109 42)"><path d="M4.93 5.61 C4.93 5.61, 4.93 5.61, 4.93 5.61 M4.93 5.61 C4.93 5.61, 4.93 5.61, 4.93 5.61 M0.74 16.54 C2.7 11.15, 5.3 9.93, 13.2 2.2 M0.74 16.54 C2.96 12.56, 5.92 10.44, 13.2 2.2 M0.47 22.94 C3.85 20.26, 7.01 13.87, 18.84 1.81 M0.47 22.94 C6.72 16.13, 12.29 10.37, 18.84 1.81 M0.87 28.58 C8 23.54, 12.09 14.49, 23.83 2.17 M0.87 28.58 C8.93 19.19, 16.42 12.32, 23.83 2.17 M0.61 34.98 C9.44 23.15, 16 15.45, 28.82 2.53 M0.61 34.98 C11.4 22.18, 23.86 9.47, 28.82 2.53 M1 40.62 C8.18 31.08, 15.72 22.21, 34.46 2.13 M1 40.62 C13.38 27.32, 25.73 12.27, 34.46 2.13 M0.74 47.02 C8.32 36.52, 19.29 28.04, 39.45 2.49 M0.74 47.02 C10.01 37.36, 16.72 28.17, 39.45 2.49 M0.48 53.42 C10.23 42.58, 17.64 33.47, 45.09 2.1 M0.48 53.42 C9.98 41.7, 20.23 30.67, 45.09 2.1 M0.87 59.06 C14.11 40.81, 31.45 23.39, 50.08 2.46 M0.87 59.06 C11.13 46.15, 21.37 34.13, 50.08 2.46 M0.61 65.46 C19.88 43.58, 36.13 21.53, 55.72 2.06 M0.61 65.46 C18.63 44.74, 37.07 23, 55.72 2.06 M2.32 69.59 C16.34 56.57, 29.61 42.41, 60.71 2.42 M2.32 69.59 C18.03 50.57, 34.65 31.12, 60.71 2.42 M4.03 73.73 C27.68 46.04, 54.52 17.26, 66.35 2.03 M4.03 73.73 C19.32 55.19, 35.28 37.47, 66.35 2.03 M5.73 77.86 C27.75 53.28, 47.57 32.29, 71.34 2.39 M5.73 77.86 C22.77 60.38, 38.07 40.13, 71.34 2.39 M8.1 81.24 C31.07 56.57, 51.63 32.17, 76.98 1.99 M8.1 81.24 C29.09 56.81, 53.16 30.75, 76.98 1.99 M11.77 83.11 C38.86 53.78, 66.06 21.53, 81.97 2.35 M11.77 83.11 C37.04 53.61, 63.81 25.31, 81.97 2.35 M16.76 83.47 C34.91 64.14, 49.11 47.4, 87.61 1.96 M16.76 83.47 C42.33 55.64, 65.34 27.58, 87.61 1.96 M21.09 84.58 C35.23 67.27, 53.04 48.6, 92.6 2.32 M21.09 84.58 C38.72 65.64, 56.8 44.26, 92.6 2.32 M26.73 84.19 C45.86 60.41, 68.11 36.15, 97.59 2.68 M26.73 84.19 C50.22 56.26, 74.88 27.63, 97.59 2.68 M31.72 84.55 C50.45 62.42, 71.19 38.17, 103.23 2.28 M31.72 84.55 C56.43 56.69, 80.39 30.83, 103.23 2.28 M37.36 84.15 C62.85 52.19, 89.47 26.18, 108.22 2.64 M37.36 84.15 C52.69 65.97, 68.52 47.44, 108.22 2.64 M42.35 84.51 C63.77 63.59, 80.88 38.31, 113.86 2.25 M42.35 84.51 C57.72 67.13, 74.23 50.82, 113.86 2.25 M47.99 84.12 C75.33 52.72, 101.53 22.51, 118.85 2.61 M47.99 84.12 C65.91 63.56, 84.73 41.57, 118.85 2.61 M52.98 84.48 C72.13 59.65, 94.25 39.34, 124.49 2.22 M52.98 84.48 C73.08 59.4, 94.98 35.1, 124.49 2.22 M58.62 84.08 C84.88 54.83, 109.36 23.65, 129.48 2.58 M58.62 84.08 C74.52 65.16, 92.72 45.08, 129.48 2.58 M63.61 84.44 C87.59 57.01, 109.44 31.54, 135.12 2.18 M63.61 84.44 C89.67 54.91, 115.19 23.39, 135.12 2.18 M69.25 84.05 C87 65.64, 103.34 44.8, 140.11 2.54 M69.25 84.05 C91.68 57.67, 114.25 31.58, 140.11 2.54 M74.24 84.41 C98.49 59.56, 118.81 32.84, 145.75 2.15 M74.24 84.41 C100.95 53.45, 129.28 19.63, 145.75 2.15 M79.88 84.02 C97.21 65.74, 112.64 48.21, 150.74 2.51 M79.88 84.02 C108.14 52.38, 135.19 21.89, 150.74 2.51 M84.87 84.38 C108.97 54.88, 135.73 26.76, 156.38 2.11 M84.87 84.38 C109.94 56.71, 133.42 30.18, 156.38 2.11 M90.51 83.98 C115.27 52.35, 142.11 27.14, 161.37 2.47 M90.51 83.98 C107.92 62.78, 126.4 43.46, 161.37 2.47 M95.5 84.34 C114.75 60.17, 132.8 41.07, 167.01 2.08 M95.5 84.34 C122.32 53.91, 147.99 24.75, 167.01 2.08 M101.14 83.95 C119.57 62.99, 137.28 42.02, 172 2.44 M101.14 83.95 C120.24 62.11, 139.06 41.11, 172 2.44 M106.13 84.31 C132.69 50.27, 161.52 22.22, 177.64 2.04 M106.13 84.31 C134.33 52.05, 163.8 19.8, 177.64 2.04 M111.12 84.67 C137.56 57.43, 159.22 28.07, 182.63 2.4 M111.12 84.67 C135.19 55.52, 160.86 26.28, 182.63 2.4 M116.76 84.27 C133.26 64.48, 147.79 49.02, 188.27 2.01 M116.76 84.27 C144.54 53.53, 171.27 21.48, 188.27 2.01 M121.75 84.63 C152.77 54.25, 180.42 19.23, 193.26 2.37 M121.75 84.63 C145.15 58.76, 167.69 32.41, 193.26 2.37 M127.39 84.24 C151.68 54.03, 178.92 23.96, 198.9 1.97 M127.39 84.24 C144.77 65.82, 160.21 45.5, 198.9 1.97 M132.38 84.6 C148.07 64.95, 162.66 47.89, 203.89 2.33 M132.38 84.6 C160.2 53.15, 188.03 21.35, 203.89 2.33 M138.02 84.2 C154.26 68.15, 169.19 48.68, 208.22 3.45 M138.02 84.2 C157.04 62.7, 176.19 41.7, 208.22 3.45 M143.01 84.56 C165.29 56.63, 189.28 31.71, 211.89 5.32 M143.01 84.56 C156.92 67.18, 172.04 50.54, 211.89 5.32 M148.65 84.17 C165.05 67.94, 179.34 48.32, 215.57 7.19 M148.65 84.17 C174.05 55.94, 198.7 27.65, 215.57 7.19 M153.64 84.53 C177.07 57.95, 197.31 33.28, 217.27 11.32 M153.64 84.53 C172.84 61.89, 191.65 38.7, 217.27 11.32 M159.28 84.13 C174.09 63.54, 194.27 45.62, 218.32 16.21 M159.28 84.13 C173.84 67.51, 189.21 51.95, 218.32 16.21 M164.27 84.49 C184.08 63.3, 200.54 42.51, 218.06 22.61 M164.27 84.49 C177 70.81, 187.93 56.84, 218.06 22.61 M169.91 84.1 C183.54 68.17, 197.97 50.22, 218.46 28.25 M169.91 84.1 C185.56 64.32, 203.15 46.02, 218.46 28.25 M174.9 84.46 C186.39 70.13, 198.98 54.78, 218.2 34.65 M174.9 84.46 C188.36 68.32, 203.23 51.8, 218.2 34.65 M180.54 84.06 C188.89 74.25, 196.98 65.43, 218.59 40.29 M180.54 84.06 C194.42 67.84, 207.82 53.07, 218.59 40.29 M185.53 84.43 C194.83 74.87, 203.97 63.04, 218.33 46.69 M185.53 84.43 C193.98 74.13, 201.71 65.92, 218.33 46.69 M191.17 84.03 C197.77 75.26, 207.04 69.03, 218.07 53.09 M191.17 84.03 C199.7 73.67, 208.26 63.57, 218.07 53.09 M196.16 84.39 C203.59 73.74, 214.21 64.47, 218.46 58.73 M196.16 84.39 C201.12 77.67, 207.95 70.85, 218.46 58.73 M199.83 86.26 C205.22 80.63, 207.33 76.98, 218.86 64.37 M199.83 86.26 C205.01 81.14, 211.17 74.26, 218.86 64.37 M206.13 85.11 C208.51 80.57, 214 75.41, 217.28 72.28 M206.13 85.11 C209.34 82.38, 211.67 79.49, 217.28 72.28" stroke="#b2f2bb" stroke-width="0.5" fill="none"></path><path d="M21 0 M21 0 C84.93 0.65, 149.95 -0.31, 197 0 M21 0 C70.22 0.27, 118.5 -0.02, 197 0 M197 0 C211.95 -1.13, 219.46 8.66, 218 21 M197 0 C213.06 -0.17, 216.88 8.18, 218 21 M218 21 C217.87 34.15, 219.21 49.61, 218 63 M218 21 C218.7 33.78, 217.41 45.67, 218 63 M218 63 C219.15 78.59, 211.03 85.27, 197 84 M218 63 C217.12 77.8, 210.96 82.26, 197 84 M197 84 C130.16 83.64, 62.88 86.68, 21 84 M197 84 C155.73 83.75, 115.17 82.26, 21 84 M21 84 C7.48 82.05, 0.72 78.46, 0 63 M21 84 C6.32 82.91, 2.22 78.62, 0 63 M0 63 C-1.48 53.09, 0.72 46.05, 0 21 M0 63 C0.67 46.34, 0.21 30.85, 0 21 M0 21 C-0.58 8.34, 6.31 -0.08, 21 0 M0 21 C0.1 8.75, 8.56 -0.4, 21 0" stroke="#1e1e1e" stroke-width="1" fill="none"></path></g><g transform="translate(984.0594960439869 28) rotate(0 61.233333587646484 22.5)"><text x="0" y="0" font-family="Virgil, Segoe UI Emoji" font-size="36px" fill="#1e1e1e" text-anchor="start" style="white-space: pre;" direction="ltr" dominant-baseline="text-before-edge">Banter</text></g><g stroke-linecap="round" transform="translate(621.8094960439869 134.75) rotate(0 58 30)"><path d="M3.99 3.47 C3.99 3.47, 3.99 3.47, 3.99 3.47 M3.99 3.47 C3.99 3.47, 3.99 3.47, 3.99 3.47 M1.11 12.89 C5.08 10.07, 6.78 6.39, 10.29 2.32 M1.11 12.89 C3.32 9.97, 5.72 6.93, 10.29 2.32 M1.5 18.53 C6.29 13.45, 9.02 8.49, 16.59 1.17 M1.5 18.53 C7.2 12.65, 13.09 6.13, 16.59 1.17 M1.24 24.93 C9.13 17.23, 14.7 11.87, 21.58 1.53 M1.24 24.93 C5.42 18.49, 10.76 13.11, 21.58 1.53 M1.63 30.57 C7.61 21.15, 16.16 13.18, 27.22 1.14 M1.63 30.57 C7.51 23.73, 13.46 16.48, 27.22 1.14 M1.37 36.97 C9.71 26.86, 15.12 19.08, 32.21 1.5 M1.37 36.97 C11.55 26.26, 19.64 16.47, 32.21 1.5 M1.11 43.37 C12.11 30.25, 24.84 17.75, 37.85 1.1 M1.11 43.37 C9.14 33.28, 18.61 22.97, 37.85 1.1 M1.51 49.01 C14.25 37.15, 24.7 25.22, 42.84 1.46 M1.51 49.01 C13.23 34.73, 26.62 19.21, 42.84 1.46 M2.56 53.9 C14.61 36.97, 30.69 23.86, 48.48 1.07 M2.56 53.9 C20.34 34.13, 36.49 13.33, 48.48 1.07 M4.92 57.28 C16.26 41.13, 31.71 26.97, 53.47 1.43 M4.92 57.28 C16.7 44.65, 28.81 30.87, 53.47 1.43 M7.94 59.9 C20.83 46.48, 31.17 35.12, 59.11 1.03 M7.94 59.9 C19.62 45.23, 32.77 31.46, 59.11 1.03 M12.27 61.02 C28.26 42.16, 44.7 21.15, 64.1 1.39 M12.27 61.02 C28.17 43.22, 43.74 24.92, 64.1 1.39 M17.26 61.38 C39.01 38.39, 60.14 12.85, 69.74 1 M17.26 61.38 C33.43 43.78, 49.31 24.91, 69.74 1 M22.24 61.74 C38.8 41.45, 54.43 20.98, 74.73 1.36 M22.24 61.74 C37.25 44.84, 51.05 30.57, 74.73 1.36 M27.89 61.34 C47.12 42.34, 65.39 22.1, 80.37 0.97 M27.89 61.34 C40.23 47.21, 52.27 34.97, 80.37 0.97 M32.87 61.7 C43.9 49.14, 53.55 34.24, 85.36 1.33 M32.87 61.7 C49.99 40.67, 67.43 21.85, 85.36 1.33 M37.86 62.06 C58.69 41.09, 75.29 18.26, 91 0.93 M37.86 62.06 C56.99 39.32, 75.98 18.32, 91 0.93 M43.5 61.67 C63.98 35.85, 83.38 13.17, 95.99 1.29 M43.5 61.67 C53.85 48.36, 65.19 34.78, 95.99 1.29 M48.49 62.03 C64.91 41.11, 82.78 20.55, 101.63 0.9 M48.49 62.03 C60.55 46.61, 75.49 32.08, 101.63 0.9 M54.13 61.63 C68.18 46.67, 83.33 31.1, 105.96 2.01 M54.13 61.63 C71.36 44.05, 87.3 25.22, 105.96 2.01 M59.12 61.99 C78.84 42.37, 93.1 22.14, 110.95 2.37 M59.12 61.99 C74.84 42.31, 92.65 23.26, 110.95 2.37 M64.76 61.6 C80.78 44.68, 95.47 27.43, 113.31 5.75 M64.76 61.6 C81.49 44.23, 96.54 25.36, 113.31 5.75 M69.75 61.96 C82.57 50.57, 94.68 33.11, 116.33 8.37 M69.75 61.96 C80.5 51.24, 89.59 39.37, 116.33 8.37 M75.39 61.56 C92.51 41.9, 106.81 24.81, 117.38 13.26 M75.39 61.56 C83.23 51.54, 92.48 40.6, 117.38 13.26 M80.38 61.92 C92.46 50.46, 102.28 35.93, 117.78 18.91 M80.38 61.92 C88.09 53.41, 97.07 42.95, 117.78 18.91 M86.02 61.53 C93.43 54.28, 101.1 44.71, 117.52 25.3 M86.02 61.53 C94.73 53.14, 102.63 41.93, 117.52 25.3 M91.01 61.89 C100.11 50.46, 107.5 41.82, 117.91 30.95 M91.01 61.89 C96.95 54.47, 104.03 47.95, 117.91 30.95 M96.65 61.5 C102.44 56.09, 106.48 51.65, 117.65 37.34 M96.65 61.5 C101.35 57.35, 105.84 52.72, 117.65 37.34 M102.3 61.1 C107.55 56.27, 113.68 48.97, 116.07 45.25 M102.3 61.1 C106.91 56.35, 110.38 53.52, 116.07 45.25 M110.56 57.69 C112.08 56.47, 113.84 54.66, 114.5 53.16 M110.56 57.69 C112.06 56.46, 113.12 54.78, 114.5 53.16" stroke="#a5d8ff" stroke-width="0.5" fill="none"></path><path d="M15 0 M15 0 C49.74 -0.62, 84.03 0.48, 101 0 M15 0 C38.67 -0.54, 62.66 -0.74, 101 0 M101 0 C110.45 -0.46, 116.11 3.21, 116 15 M101 0 C109.47 -0.02, 114.47 4.69, 116 15 M116 15 C114.52 23.8, 117.93 27.35, 116 45 M116 15 C116.99 22.65, 116.93 30.95, 116 45 M116 45 C116.13 53.8, 111.48 61.35, 101 60 M116 45 C115.96 54.06, 109.35 58.76, 101 60 M101 60 C66.96 60.49, 38.42 60.35, 15 60 M101 60 C82.08 59.28, 62.1 59.77, 15 60 M15 60 C3.69 61.95, 1.05 56.4, 0 45 M15 60 C3.67 59.99, -1.66 53.84, 0 45 M0 45 C-1.12 36.37, -0.61 26.13, 0 15 M0 45 C0.54 38.41, 0.68 32.16, 0 15 M0 15 C1.32 3.19, 6.12 -0.62, 15 0 M0 15 C0.46 6.76, 5.22 1.74, 15 0" stroke="#1e1e1e" stroke-width="1" fill="none"></path></g><g transform="translate(598.4386452721048 216.28588918726513) rotate(0 76.58333587646484 12.5)"><text x="0" y="0" font-family="Virgil, Segoe UI Emoji" font-size="20px" fill="#1e1e1e" text-anchor="start" style="white-space: pre;" direction="ltr" dominant-baseline="text-before-edge">Built on Django</text></g><g stroke-linecap="round" transform="translate(464.6363591984747 270.14431855006404) rotate(0 48 21.5)"><path d="M2.86 2.49 C2.86 2.49, 2.86 2.49, 2.86 2.49 M2.86 2.49 C2.86 2.49, 2.86 2.49, 2.86 2.49 M0.63 11.15 C4.22 7.35, 4.65 5.67, 10.47 -0.17 M0.63 11.15 C3.07 7.97, 5.96 5.92, 10.47 -0.17 M1.03 16.79 C3.86 10.74, 9.44 6.88, 13.49 2.45 M1.03 16.79 C3.9 13.47, 7.11 10.59, 13.49 2.45 M0.76 23.19 C6.94 17.34, 13.23 8.15, 18.48 2.81 M0.76 23.19 C4.99 18.96, 8.94 15.14, 18.48 2.81 M1.16 28.83 C10.1 19.22, 17.83 13.34, 24.12 2.42 M1.16 28.83 C6.11 22.66, 11.92 16.23, 24.12 2.42 M0.9 35.23 C8.04 29.01, 12.73 19.68, 29.11 2.78 M0.9 35.23 C7.81 28.52, 11.88 21.27, 29.11 2.78 M3.26 38.61 C10.42 29.07, 18.37 21.54, 34.75 2.38 M3.26 38.61 C14.56 25.8, 25.95 11.68, 34.75 2.38 M5.62 41.99 C11.2 35.78, 19.98 25.65, 39.74 2.74 M5.62 41.99 C16.55 29.14, 28.25 15.23, 39.74 2.74 M8.64 44.61 C19.32 31.78, 27.4 22.76, 45.38 2.35 M8.64 44.61 C16.97 35.26, 22.69 26.53, 45.38 2.35 M13.63 44.97 C23.23 32.82, 36.65 20.45, 50.37 2.71 M13.63 44.97 C23.26 33.03, 34.61 21.19, 50.37 2.71 M19.27 44.58 C31.3 29.09, 45.67 10.73, 55.36 3.07 M19.27 44.58 C30.3 32.93, 40.73 21.37, 55.36 3.07 M24.26 44.94 C36.83 30.05, 48.63 15.87, 61 2.68 M24.26 44.94 C32.39 36.59, 41.03 26.07, 61 2.68 M29.9 44.54 C43.31 31.01, 53.11 15.94, 65.99 3.04 M29.9 44.54 C42.25 29.31, 55.84 14.44, 65.99 3.04 M34.89 44.9 C47.7 28.49, 61.12 17.36, 71.63 2.64 M34.89 44.9 C43.45 34.49, 53.45 24.02, 71.63 2.64 M40.53 44.51 C50.64 33.64, 63.03 21.8, 76.62 3 M40.53 44.51 C53.43 29.62, 64.87 14.16, 76.62 3 M45.52 44.87 C56.54 32.77, 64.52 22.52, 81.6 3.36 M45.52 44.87 C55.37 35.52, 64.13 24.32, 81.6 3.36 M50.51 45.23 C62.17 31.61, 77.57 15.3, 87.25 2.97 M50.51 45.23 C65.88 29.2, 78.51 13.32, 87.25 2.97 M56.15 44.84 C63.76 35.25, 73.61 26.86, 92.89 2.57 M56.15 44.84 C63.46 35.85, 72.73 25.49, 92.89 2.57 M61.14 45.2 C72.61 33.57, 83.11 21.24, 95.25 5.95 M61.14 45.2 C72.75 31.74, 84.8 18.45, 95.25 5.95 M66.78 44.8 C72.2 39.09, 80.36 30.87, 98.27 8.57 M66.78 44.8 C75.51 35.65, 83.59 25.71, 98.27 8.57 M71.77 45.16 C80.51 31.91, 90.31 20.77, 98.01 14.97 M71.77 45.16 C81.25 34.84, 88.85 25.61, 98.01 14.97 M76.75 45.52 C81.19 41.63, 87.52 34.76, 98.4 20.62 M76.75 45.52 C83.39 38.59, 88.81 31.91, 98.4 20.62 M82.4 45.13 C89.78 37.67, 91.48 31.92, 98.14 27.01 M82.4 45.13 C86.26 42.32, 89.33 38.01, 98.14 27.01 M87.38 45.49 C91.13 40.49, 96.63 36.7, 98.54 32.66 M87.38 45.49 C89.66 41.47, 93.79 38.43, 98.54 32.66" stroke="#a5d8ff" stroke-width="0.5" fill="none"></path><path d="M10.75 0 M10.75 0 C29.04 0.35, 51.78 1.41, 85.25 0 M10.75 0 C28.88 -0.59, 44.95 0.68, 85.25 0 M85.25 0 C92.06 -1.2, 94.79 4.23, 96 10.75 M85.25 0 C92.14 0.82, 94.19 4.26, 96 10.75 M96 10.75 C94.64 18.72, 96.34 22.59, 96 32.25 M96 10.75 C97.13 16.15, 96.12 22.96, 96 32.25 M96 32.25 C94.69 40.72, 91.04 44.67, 85.25 43 M96 32.25 C95.49 38.19, 93.7 44.48, 85.25 43 M85.25 43 C60.35 42.76, 33.43 42.13, 10.75 43 M85.25 43 C60.35 43.22, 37.25 43.94, 10.75 43 M10.75 43 C4.17 43.54, -0.67 39.23, 0 32.25 M10.75 43 C5.8 42.74, -1.54 38.62, 0 32.25 M0 32.25 C0.99 25.57, 1.21 15.68, 0 10.75 M0 32.25 C-0.93 26.62, 0.25 19.42, 0 10.75 M0 10.75 C1.56 4.39, 4.52 1.16, 10.75 0 M0 10.75 C1.16 5.66, 3.15 -1.87, 10.75 0" stroke="#1e1e1e" stroke-width="1" fill="none"></path></g><g transform="translate(486.6530256108282 279.14431855006404) rotate(0 25.983333587646484 12.5)"><text x="25.983333587646484" y="0" font-family="Virgil, Segoe UI Emoji" font-size="20px" fill="#1e1e1e" text-anchor="middle" style="white-space: pre;" direction="ltr" dominant-baseline="text-before-edge">ASGI</text></g><g stroke-linecap="round" transform="translate(795.4379238049111 268.5490466181223) rotate(0 45.5 19)"><path d="M2.53 2.2 C2.53 2.2, 2.53 2.2, 2.53 2.2 M2.53 2.2 C2.53 2.2, 2.53 2.2, 2.53 2.2 M0.96 10.11 C3.86 5.34, 7.24 3.37, 9.48 0.29 M0.96 10.11 C4.04 7.28, 6.33 4.71, 9.48 0.29 M0.69 16.5 C5.26 12.52, 11.38 6.09, 15.13 -0.1 M0.69 16.5 C3.96 11.61, 8.49 7.77, 15.13 -0.1 M1.09 22.15 C8.43 17.83, 11.53 10.84, 20.11 0.26 M1.09 22.15 C4.45 17.52, 8.12 12.04, 20.11 0.26 M1.48 27.79 C8.84 18.94, 17.74 9.88, 25.76 -0.13 M1.48 27.79 C7.16 20.84, 13.67 13.83, 25.76 -0.13 M1.88 33.43 C14.47 19.4, 23.06 5.75, 30.74 0.23 M1.88 33.43 C13.77 20.35, 24.11 6.9, 30.74 0.23 M4.24 36.81 C15.26 24.4, 20.53 16.2, 35.73 0.59 M4.24 36.81 C11.12 30.57, 16.99 21.98, 35.73 0.59 M7.26 39.44 C15.01 29.74, 23.79 19.72, 41.37 0.19 M7.26 39.44 C14.96 32.28, 22.15 22.73, 41.37 0.19 M12.9 39.04 C25.9 26.8, 35.86 13.24, 46.36 0.55 M12.9 39.04 C22.89 27.51, 34.86 13.74, 46.36 0.55 M17.89 39.4 C26.17 28.93, 31.94 22.65, 52 0.16 M17.89 39.4 C27.15 29.05, 36.01 16.87, 52 0.16 M23.53 39.01 C35.5 22.42, 48.27 9.8, 56.99 0.52 M23.53 39.01 C36.76 25.16, 49.51 10.93, 56.99 0.52 M28.52 39.37 C36.61 29.82, 42.12 23.58, 61.98 0.88 M28.52 39.37 C37.95 28.46, 46.85 18.2, 61.98 0.88 M33.51 39.73 C41.38 28.35, 50.72 21.73, 67.62 0.48 M33.51 39.73 C43.4 27.86, 55.49 15.17, 67.62 0.48 M39.15 39.33 C44.56 30.51, 52.45 22.46, 72.61 0.84 M39.15 39.33 C51.54 26.57, 62.05 11.98, 72.61 0.84 M44.14 39.69 C52.26 28.27, 61.79 19.01, 78.25 0.45 M44.14 39.69 C53.61 29.98, 61.57 19.47, 78.25 0.45 M49.78 39.3 C59.03 29.99, 63.63 24.18, 83.24 0.81 M49.78 39.3 C62.26 24.74, 75.97 9.08, 83.24 0.81 M54.77 39.66 C66.45 29.5, 74.91 16.07, 87.57 1.92 M54.77 39.66 C68.25 25.13, 80.64 9.73, 87.57 1.92 M60.41 39.26 C67.23 30.79, 74.6 21.62, 89.93 5.3 M60.41 39.26 C67.87 31.75, 72.53 24.31, 89.93 5.3 M65.4 39.62 C71.24 30.5, 79.48 24.09, 92.95 7.93 M65.4 39.62 C76.65 28.42, 86.2 15.77, 92.95 7.93 M70.38 39.98 C77.71 34.55, 82.79 25.25, 93.35 13.57 M70.38 39.98 C75.7 33.15, 80.26 27.11, 93.35 13.57 M76.03 39.59 C81.87 32.4, 88.79 26.38, 93.08 19.97 M76.03 39.59 C82.97 33.15, 88.66 25.12, 93.08 19.97 M82.33 38.44 C85.61 35.46, 88.9 33.35, 92.82 26.36 M82.33 38.44 C85.39 34.67, 90.11 29.94, 92.82 26.36" stroke="#a5d8ff" stroke-width="0.5" fill="none"></path><path d="M9.5 0 M9.5 0 C27.53 -0.17, 46.72 -1.13, 81.5 0 M9.5 0 C25.22 -1.16, 42.73 0.16, 81.5 0 M81.5 0 C88.96 -1.89, 92.11 1.31, 91 9.5 M81.5 0 C85.71 -1, 93.25 1.63, 91 9.5 M91 9.5 C92.3 15.05, 91.4 22.78, 91 28.5 M91 9.5 C90.57 15.43, 90.93 22.13, 91 28.5 M91 28.5 C89.82 36.8, 87.55 37.44, 81.5 38 M91 28.5 C88.76 33.94, 87.7 39.94, 81.5 38 M81.5 38 C67.85 39.71, 49.69 39.23, 9.5 38 M81.5 38 C56.64 38.28, 30.35 37.61, 9.5 38 M9.5 38 C4.8 37.77, -1.26 33.69, 0 28.5 M9.5 38 C0.89 39.08, 2.25 32.67, 0 28.5 M0 28.5 C1.67 22.85, -0.55 19.17, 0 9.5 M0 28.5 C0.05 21.99, 0.14 15.33, 0 9.5 M0 9.5 C0.51 3.2, 1.8 -0.74, 9.5 0 M0 9.5 C-1.44 5.27, 5.24 -1.71, 9.5 0" stroke="#1e1e1e" stroke-width="1" fill="none"></path></g><g transform="translate(655.8094960439869 149.75) rotate(0 26.066667556762695 17.5)"><text x="0" y="0" font-family="Virgil, Segoe UI Emoji" font-size="28px" fill="#1e1e1e" text-anchor="start" style="white-space: pre;" direction="ltr" dominant-baseline="text-before-edge">API</text></g><g stroke-linecap="round" transform="translate(26.809496043986883 138.5) rotate(0 58 30)"><path d="M3.99 3.47 C3.99 3.47, 3.99 3.47, 3.99 3.47 M3.99 3.47 C3.99 3.47, 3.99 3.47, 3.99 3.47 M1.11 12.89 C3.92 10.93, 4.93 6.71, 10.29 2.32 M1.11 12.89 C3.6 9.22, 7.16 5.88, 10.29 2.32 M1.5 18.53 C8.34 10.07, 11.69 4.7, 16.59 1.17 M1.5 18.53 C6.01 13.99, 10.36 8.77, 16.59 1.17 M1.24 24.93 C5.84 20.22, 12.06 12.55, 21.58 1.53 M1.24 24.93 C9.24 15.97, 17.31 6.23, 21.58 1.53 M1.63 30.57 C8.69 24.34, 16.56 14.65, 27.22 1.14 M1.63 30.57 C8.05 24.57, 11.84 18.84, 27.22 1.14 M1.37 36.97 C15.22 23.95, 26.42 8.2, 32.21 1.5 M1.37 36.97 C13 24.33, 24.82 11.05, 32.21 1.5 M1.11 43.37 C11.46 32.65, 20.54 23.42, 37.85 1.1 M1.11 43.37 C14.28 28.19, 27.32 12.68, 37.85 1.1 M1.51 49.01 C14.23 36.19, 26.44 22.01, 42.84 1.46 M1.51 49.01 C15.85 32.27, 29.52 16.6, 42.84 1.46 M2.56 53.9 C14.92 41.16, 28.78 24.58, 48.48 1.07 M2.56 53.9 C13.19 42.22, 23.18 31.45, 48.48 1.07 M4.92 57.28 C16.46 43.44, 31.13 28.41, 53.47 1.43 M4.92 57.28 C20.33 40.19, 35.99 22.13, 53.47 1.43 M7.94 59.9 C25.22 41.56, 39.29 24.22, 59.11 1.03 M7.94 59.9 C27.66 37.17, 45.16 16.17, 59.11 1.03 M12.27 61.02 C23.62 47.59, 37.21 32.75, 64.1 1.39 M12.27 61.02 C22.61 46.96, 33.86 34.55, 64.1 1.39 M17.26 61.38 C33.06 43.02, 52.01 25.08, 69.74 1 M17.26 61.38 C29.76 47.53, 41.09 32.65, 69.74 1 M22.24 61.74 C40.67 44.26, 54.98 22.38, 74.73 1.36 M22.24 61.74 C40.89 40.02, 58.75 20.33, 74.73 1.36 M27.89 61.34 C41.93 46.47, 55.31 29.66, 80.37 0.97 M27.89 61.34 C46.5 40.14, 66.04 18.12, 80.37 0.97 M32.87 61.7 C53.86 40.25, 72.65 17.68, 85.36 1.33 M32.87 61.7 C47.99 43.48, 63.19 25.85, 85.36 1.33 M37.86 62.06 C47.96 47.14, 62.51 37.29, 91 0.93 M37.86 62.06 C55.74 40.17, 73.53 20.08, 91 0.93 M43.5 61.67 C61.28 37.96, 84.73 14.73, 95.99 1.29 M43.5 61.67 C55.19 48.98, 67.78 34.93, 95.99 1.29 M48.49 62.03 C69.02 41.79, 87 18.34, 101.63 0.9 M48.49 62.03 C65.66 43.71, 81.88 24.42, 101.63 0.9 M54.13 61.63 C67.65 45.87, 83.22 29.8, 105.96 2.01 M54.13 61.63 C75.95 37.93, 94.93 14.92, 105.96 2.01 M59.12 61.99 C78.31 39.87, 97.97 19.11, 110.95 2.37 M59.12 61.99 C69.86 49.24, 82.08 35.42, 110.95 2.37 M64.76 61.6 C80.53 43.58, 99.74 22.48, 113.31 5.75 M64.76 61.6 C77.7 47.42, 89.77 32.49, 113.31 5.75 M69.75 61.96 C89.01 40.06, 108.17 20.08, 116.33 8.37 M69.75 61.96 C88.03 41.43, 106.94 19.34, 116.33 8.37 M75.39 61.56 C89.49 45.65, 106.66 24.55, 117.38 13.26 M75.39 61.56 C90.79 44.52, 103.8 28.44, 117.38 13.26 M80.38 61.92 C90.51 52.46, 100.96 40.41, 117.78 18.91 M80.38 61.92 C94.09 47.05, 107.46 32.23, 117.78 18.91 M86.02 61.53 C95.36 49.33, 104.02 40.3, 117.52 25.3 M86.02 61.53 C98.08 49.04, 107.5 36.04, 117.52 25.3 M91.01 61.89 C100.18 52.75, 107.4 46.29, 117.91 30.95 M91.01 61.89 C101.25 50.31, 110.71 39.26, 117.91 30.95 M96.65 61.5 C102.86 54.7, 106.2 49.68, 117.65 37.34 M96.65 61.5 C103.37 54.36, 109.37 46.36, 117.65 37.34 M102.3 61.1 C106.92 55.61, 109.57 50.63, 116.07 45.25 M102.3 61.1 C107.94 55.24, 110.77 50.19, 116.07 45.25 M110.56 57.69 C112.21 55.58, 113.08 54.04, 114.5 53.16 M110.56 57.69 C111.39 56.9, 112.05 55.7, 114.5 53.16" stroke="#ffc9c9" stroke-width="0.5" fill="none"></path><path d="M15 0 M15 0 C47.38 2.31, 84.36 2.41, 101 0 M15 0 C42.38 -1.2, 70.59 -0.38, 101 0 M101 0 C110.37 0.66, 115.37 3.4, 116 15 M101 0 C110.08 -2.06, 117.22 4.76, 116 15 M116 15 C115.21 20.52, 116.07 30.91, 116 45 M116 15 C115.52 24.21, 114.79 33.92, 116 45 M116 45 C116.72 54.59, 112.25 58.64, 101 60 M116 45 C114.94 53.82, 110.41 61.77, 101 60 M101 60 C74.82 58.92, 47.04 60.34, 15 60 M101 60 C77.03 58.68, 52.56 58.82, 15 60 M15 60 C4.86 60.91, 1.54 55, 0 45 M15 60 C3.58 61.82, -1.32 54.92, 0 45 M0 45 C-0.36 37.35, 1.26 24.75, 0 15 M0 45 C0.23 38.3, -0.27 29.71, 0 15 M0 15 C-0.62 3.86, 4.01 0.14, 15 0 M0 15 C-0.55 7.08, 4.09 1.73, 15 0" stroke="#1e1e1e" stroke-width="1" fill="none"></path></g><g transform="translate(47.05949604398688 153.5) rotate(0 35.78333282470703 17.5)"><text x="0" y="0" font-family="Virgil, Segoe UI Emoji" font-size="28px" fill="#1e1e1e" text-anchor="start" style="white-space: pre;" direction="ltr" dominant-baseline="text-before-edge">Redis</text></g><g stroke-linecap="round" transform="translate(219.41562951079942 137.31107325020486) rotate(0 58 30)"><path d="M3.99 3.47 C3.99 3.47, 3.99 3.47, 3.99 3.47 M3.99 3.47 C3.99 3.47, 3.99 3.47, 3.99 3.47 M1.11 12.89 C4.48 8.19, 6.94 6.48, 10.29 2.32 M1.11 12.89 C2.9 10.35, 6.49 7.12, 10.29 2.32 M1.5 18.53 C3.27 12.14, 7.86 7.77, 16.59 1.17 M1.5 18.53 C5.99 14.95, 8.96 11.16, 16.59 1.17 M1.24 24.93 C6.3 19.49, 11.94 11.46, 21.58 1.53 M1.24 24.93 C7.07 17.39, 14.23 11.45, 21.58 1.53 M1.63 30.57 C6.96 22.83, 14.35 17.09, 27.22 1.14 M1.63 30.57 C10.22 20.22, 19.52 9.76, 27.22 1.14 M1.37 36.97 C14.99 22.36, 25.14 8.33, 32.21 1.5 M1.37 36.97 C13.14 24.87, 22.96 12.75, 32.21 1.5 M1.11 43.37 C9.6 32.74, 23.11 19.96, 37.85 1.1 M1.11 43.37 C13.68 29.54, 24.16 15.62, 37.85 1.1 M1.51 49.01 C15.78 30.31, 31.41 14.88, 42.84 1.46 M1.51 49.01 C10.33 37.31, 21.4 26.31, 42.84 1.46 M2.56 53.9 C17.34 34.08, 32.94 18.08, 48.48 1.07 M2.56 53.9 C15.61 40.47, 27.67 25.32, 48.48 1.07 M4.92 57.28 C20.52 37.64, 33.8 20.06, 53.47 1.43 M4.92 57.28 C15.62 43.93, 27.56 31.8, 53.47 1.43 M7.94 59.9 C18.92 47.33, 28.24 32.57, 59.11 1.03 M7.94 59.9 C18.73 46.27, 30.32 33.48, 59.11 1.03 M12.27 61.02 C23.7 45.5, 38.06 28.35, 64.1 1.39 M12.27 61.02 C25.49 46.26, 37.7 30.31, 64.1 1.39 M17.26 61.38 C31.96 46.36, 42.88 32.53, 69.74 1 M17.26 61.38 C33.71 40.92, 51.8 20.68, 69.74 1 M22.24 61.74 C33.66 50.26, 45.6 36.9, 74.73 1.36 M22.24 61.74 C36.88 45.76, 50.35 28.77, 74.73 1.36 M27.89 61.34 C47.15 40.51, 63.83 17.69, 80.37 0.97 M27.89 61.34 C47.08 39.83, 66.31 17.14, 80.37 0.97 M32.87 61.7 C52.33 36.55, 74.54 14.52, 85.36 1.33 M32.87 61.7 C44.12 49.15, 56.28 34.56, 85.36 1.33 M37.86 62.06 C56.08 44.08, 70.55 22.55, 91 0.93 M37.86 62.06 C49.12 46.46, 62.02 31.9, 91 0.93 M43.5 61.67 C58.42 43.74, 74.85 27.32, 95.99 1.29 M43.5 61.67 C63.46 37.65, 82.44 15.13, 95.99 1.29 M48.49 62.03 C59.81 48.51, 73.78 34.44, 101.63 0.9 M48.49 62.03 C65.25 43.92, 81.91 24.65, 101.63 0.9 M54.13 61.63 C67.04 45.09, 83.01 27.1, 105.96 2.01 M54.13 61.63 C72.22 40.13, 91.71 17.6, 105.96 2.01 M59.12 61.99 C68.46 49.54, 80.88 36.99, 110.95 2.37 M59.12 61.99 C72.81 47.1, 85.49 31.52, 110.95 2.37 M64.76 61.6 C78.27 45.94, 92.7 27.98, 113.31 5.75 M64.76 61.6 C78.84 45.4, 92.91 28.41, 113.31 5.75 M69.75 61.96 C83.96 44.67, 103.38 23.98, 116.33 8.37 M69.75 61.96 C79.98 50.84, 89.42 38.79, 116.33 8.37 M75.39 61.56 C90.3 45.39, 104.11 29.52, 117.38 13.26 M75.39 61.56 C86.85 48.5, 99.02 35.23, 117.38 13.26 M80.38 61.92 C95.21 46.27, 107.39 31.04, 117.78 18.91 M80.38 61.92 C90.27 50.47, 97.7 39.8, 117.78 18.91 M86.02 61.53 C93.47 51.2, 102.79 39.35, 117.52 25.3 M86.02 61.53 C96.31 50.35, 104.4 39.74, 117.52 25.3 M91.01 61.89 C99.78 52.23, 108.97 43.01, 117.91 30.95 M91.01 61.89 C98.05 53.91, 104.02 46.64, 117.91 30.95 M96.65 61.5 C105.9 52.17, 114.13 43.74, 117.65 37.34 M96.65 61.5 C103.38 54.18, 109.72 45.63, 117.65 37.34 M102.3 61.1 C105.31 55.87, 109.35 53.32, 116.07 45.25 M102.3 61.1 C104.61 57.98, 108.05 54.38, 116.07 45.25 M110.56 57.69 C111.8 57.22, 111.74 56.26, 114.5 53.16 M110.56 57.69 C111.32 56.8, 112.59 55.8, 114.5 53.16" stroke="#ffec99" stroke-width="0.5" fill="none"></path><path d="M15 0 M15 0 C38.26 -1.08, 62.43 -1.1, 101 0 M15 0 C35.15 0.45, 57.21 0.35, 101 0 M101 0 C110.73 0.9, 117.26 6.71, 116 15 M101 0 C110.58 0.71, 118.01 4.5, 116 15 M116 15 C117.51 21.05, 116.58 28.96, 116 45 M116 15 C116.06 21.48, 116.72 29.89, 116 45 M116 45 C114.26 53.89, 111.28 59.99, 101 60 M116 45 C114.09 53.82, 109.63 60.75, 101 60 M101 60 C67.15 61.56, 37.55 59.76, 15 60 M101 60 C77.91 59.78, 54.83 59.68, 15 60 M15 60 C4.55 59.7, -1.58 54.51, 0 45 M15 60 C6.65 60.99, 1.59 54.43, 0 45 M0 45 C-0.15 36.82, 0.93 30.92, 0 15 M0 45 C0.85 33.7, -0.72 23.29, 0 15 M0 15 C-1.73 6.3, 4.91 -1.73, 15 0 M0 15 C1.18 3.87, 7.01 0.3, 15 0" stroke="#1e1e1e" stroke-width="1" fill="none"></path></g><g transform="translate(230.15421551243827 149.93321975061457) rotate(0 44.04999923706055 17.5)"><text x="0" y="0" font-family="Virgil, Segoe UI Emoji" font-size="28px" fill="#1e1e1e" text-anchor="start" style="white-space: pre;" direction="ltr" dominant-baseline="text-before-edge">MySQL</text></g><g stroke-linecap="round" transform="translate(1343.0594960439869 136) rotate(0 58 30)"><path d="M3.99 3.47 C3.99 3.47, 3.99 3.47, 3.99 3.47 M3.99 3.47 C3.99 3.47, 3.99 3.47, 3.99 3.47 M1.11 12.89 C2.9 8.65, 7.26 5.76, 10.29 2.32 M1.11 12.89 C3.84 10.13, 7.27 6.77, 10.29 2.32 M1.5 18.53 C6.97 12.33, 14.28 7.16, 16.59 1.17 M1.5 18.53 C7.9 12.4, 12.86 4.34, 16.59 1.17 M1.24 24.93 C3.83 18.26, 7.72 16.82, 21.58 1.53 M1.24 24.93 C10.29 15, 17.86 7.13, 21.58 1.53 M1.63 30.57 C10.91 20.23, 18.5 10.27, 27.22 1.14 M1.63 30.57 C8.68 22.31, 16.67 13.68, 27.22 1.14 M1.37 36.97 C12.63 25.08, 22.2 10.9, 32.21 1.5 M1.37 36.97 C12.77 23.93, 25.59 8.56, 32.21 1.5 M1.11 43.37 C10.38 35.27, 17.5 26.38, 37.85 1.1 M1.11 43.37 C9.23 34.08, 16.17 24.78, 37.85 1.1 M1.51 49.01 C19.62 30, 35.86 9.78, 42.84 1.46 M1.51 49.01 C18.24 29.86, 34.13 12.44, 42.84 1.46 M2.56 53.9 C14.84 40.09, 22.15 29.31, 48.48 1.07 M2.56 53.9 C19.06 35.67, 34.18 18.22, 48.48 1.07 M4.92 57.28 C22.23 35.61, 41.44 14.81, 53.47 1.43 M4.92 57.28 C17.03 44.62, 28.18 30.72, 53.47 1.43 M7.94 59.9 C23.2 41.78, 36.49 27.31, 59.11 1.03 M7.94 59.9 C18.73 47.77, 30.91 35.19, 59.11 1.03 M12.27 61.02 C27.39 41.51, 47.33 21.68, 64.1 1.39 M12.27 61.02 C23.06 48.98, 33.89 37.25, 64.1 1.39 M17.26 61.38 C36.74 41.29, 53.41 19.48, 69.74 1 M17.26 61.38 C30.8 45.27, 45.06 28.54, 69.74 1 M22.24 61.74 C42.03 39.86, 63.42 16.19, 74.73 1.36 M22.24 61.74 C37.9 45.05, 53.81 25.89, 74.73 1.36 M27.89 61.34 C43.2 42.91, 59.35 26.37, 80.37 0.97 M27.89 61.34 C43.05 41.69, 58.99 23.61, 80.37 0.97 M32.87 61.7 C46.82 45.15, 62.68 24.37, 85.36 1.33 M32.87 61.7 C51.8 40.43, 69.87 18.78, 85.36 1.33 M37.86 62.06 C50.99 47.68, 62.17 29.87, 91 0.93 M37.86 62.06 C49.9 46.34, 63.91 32.7, 91 0.93 M43.5 61.67 C58.09 47.71, 69.69 32.4, 95.99 1.29 M43.5 61.67 C64.03 39.29, 84.39 16.26, 95.99 1.29 M48.49 62.03 C64.15 44.96, 74.91 28.04, 101.63 0.9 M48.49 62.03 C69.01 39.19, 86.54 17.54, 101.63 0.9 M54.13 61.63 C65.66 49.05, 77.88 32, 105.96 2.01 M54.13 61.63 C73.83 38.59, 95.81 15.03, 105.96 2.01 M59.12 61.99 C72.17 43.95, 87.79 31.56, 110.95 2.37 M59.12 61.99 C72 45.14, 86.55 29.45, 110.95 2.37 M64.76 61.6 C80.61 41.27, 96.77 22.14, 113.31 5.75 M64.76 61.6 C82.88 40.34, 99.89 20.49, 113.31 5.75 M69.75 61.96 C80.54 49.62, 91.54 34.13, 116.33 8.37 M69.75 61.96 C84.05 46.49, 98.71 29.42, 116.33 8.37 M75.39 61.56 C82.5 53.49, 91.78 42.24, 117.38 13.26 M75.39 61.56 C89.07 45.56, 102.18 31.04, 117.38 13.26 M80.38 61.92 C91.52 47.23, 103.17 35.26, 117.78 18.91 M80.38 61.92 C95.35 46.22, 108.4 29.61, 117.78 18.91 M86.02 61.53 C92.14 54.86, 97.74 46.71, 117.52 25.3 M86.02 61.53 C98.23 48.19, 109.75 35.65, 117.52 25.3 M91.01 61.89 C99.39 54.2, 104.88 47.5, 117.91 30.95 M91.01 61.89 C98.97 52.61, 108.55 42.13, 117.91 30.95 M96.65 61.5 C103.67 53.81, 109.07 50.01, 117.65 37.34 M96.65 61.5 C102.8 54.23, 108.56 46.89, 117.65 37.34 M102.3 61.1 C107.89 54.23, 113.15 50.26, 116.07 45.25 M102.3 61.1 C104.88 57.87, 109.73 52.73, 116.07 45.25 M110.56 57.69 C111.34 56.26, 112.76 56.26, 114.5 53.16 M110.56 57.69 C111.69 56.64, 112.78 55.31, 114.5 53.16" stroke="#ffec99" stroke-width="0.5" fill="none"></path><path d="M15 0 M15 0 C35.7 0.99, 58.31 1.95, 101 0 M15 0 C40.92 0.61, 67.75 -0.32, 101 0 M101 0 C109.47 0.01, 116.84 5.94, 116 15 M101 0 C111.98 1.05, 117.26 7.17, 116 15 M116 15 C115.55 24.18, 118.01 36.32, 116 45 M116 15 C116.54 23.6, 116.9 33.67, 116 45 M116 45 C115.36 54.96, 111.09 59.49, 101 60 M116 45 C117.98 54.55, 109.32 58.54, 101 60 M101 60 C74.53 60.44, 49.19 61.02, 15 60 M101 60 C68.52 59.3, 33.7 59.12, 15 60 M15 60 C4.05 59.83, 1.48 54.11, 0 45 M15 60 C3.7 60.49, -0.84 56.86, 0 45 M0 45 C1.85 32.97, 0.76 19.79, 0 15 M0 45 C0.41 38.18, 0.23 31.7, 0 15 M0 15 C1.08 4.89, 3.88 -1.39, 15 0 M0 15 C1.39 3.91, 7.22 -0.71, 15 0" stroke="#1e1e1e" stroke-width="1" fill="none"></path></g><g transform="translate(1377.0594960439869 152.25) rotate(0 25.21666717529297 17.5)"><text x="0" y="0" font-family="Virgil, Segoe UI Emoji" font-size="28px" fill="#1e1e1e" text-anchor="start" style="white-space: pre;" direction="ltr" dominant-baseline="text-before-edge">Web</text></g><g stroke-linecap="round"><g transform="translate(896.8690198535106 48.65476190476181) rotate(0 -103.94861155814488 31.328405486848197)"><path d="M0.13 0.65 C-29.33 2.08, -143.23 -0.52, -177.81 9.67 C-212.39 19.86, -202.58 52.99, -207.34 61.78 M-1.26 -0.06 C-30.82 1.57, -144.46 -2.43, -178.92 8.03 C-213.38 18.49, -202.98 53.47, -208.03 62.72" stroke="#1e1e1e" stroke-width="1" fill="none"></path></g><g transform="translate(896.8690198535106 48.65476190476181) rotate(0 -103.94861155814488 31.328405486848197)"><path d="M-213.09 32.84 C-211.07 39.89, -212.49 47.78, -208.16 64.1 M-213.98 32.64 C-211.27 43.44, -209.93 56, -207.62 62.7" stroke="#1e1e1e" stroke-width="1" fill="none"></path></g><g transform="translate(896.8690198535106 48.65476190476181) rotate(0 -103.94861155814488 31.328405486848197)"><path d="M-192.78 35.76 C-195.13 42.21, -200.89 49.47, -208.16 64.1 M-193.66 35.56 C-198.53 45.12, -204.79 56.59, -207.62 62.7" stroke="#1e1e1e" stroke-width="1" fill="none"></path></g></g><mask></mask><g stroke-linecap="round"><g transform="translate(1185.9729201267203 47.326356417913644) rotate(0 104.30665683563865 30.754459175243966)"><path d="M0.1 0.03 C29.76 1.47, 143.67 -1.88, 178.26 8.39 C212.85 18.66, 202.48 52.54, 207.65 61.65 M-1.3 -1 C28.14 0.63, 141.91 -0.85, 177.12 9.74 C212.32 20.33, 204.48 54.01, 209.92 62.51" stroke="#1e1e1e" stroke-width="1" fill="none"></path></g><g transform="translate(1185.9729201267203 47.326356417913644) rotate(0 104.30665683563865 30.754459175243966)"><path d="M194 36.48 C198.51 43.41, 202.9 54.39, 210.78 61.62 M192.98 37.38 C198.92 45.79, 204.96 52.61, 210.47 62.17" stroke="#1e1e1e" stroke-width="1" fill="none"></path></g><g transform="translate(1185.9729201267203 47.326356417913644) rotate(0 104.30665683563865 30.754459175243966)"><path d="M214.06 32.16 C212.02 40.52, 209.85 52.9, 210.78 61.62 M213.04 33.07 C212.49 42.99, 212.03 51.21, 210.47 62.17" stroke="#1e1e1e" stroke-width="1" fill="none"></path></g></g><mask></mask><g stroke-linecap="round"><g transform="translate(899.5676314116556 36.07635641791366) rotate(0 -405.83782537146305 30.88105883546173)"><path d="M0.43 -0.43 C-115.46 0.87, -558.86 -2.67, -694.15 7.98 C-829.44 18.63, -791.8 54.25, -811.31 63.47 M-0.8 -1.7 C-116.97 -0.27, -559.98 -1.44, -695.2 9.11 C-830.41 19.67, -792.82 52.96, -812.11 61.63" stroke="#1e1e1e" stroke-width="1" fill="none"></path></g><g transform="translate(899.5676314116556 36.07635641791366) rotate(0 -405.83782537146305 30.88105883546173)"><path d="M-806.64 31.96 C-809.64 43.94, -809.22 55.86, -810.78 62.8 M-805.37 32.9 C-807.42 40.97, -809.06 49.85, -812.68 61.6" stroke="#1e1e1e" stroke-width="1" fill="none"></path></g><g transform="translate(899.5676314116556 36.07635641791366) rotate(0 -405.83782537146305 30.88105883546173)"><path d="M-789.22 42.81 C-799.2 50.51, -805.74 58.1, -810.78 62.8 M-787.95 43.74 C-795.33 48.64, -802.27 54.23, -812.68 61.6" stroke="#1e1e1e" stroke-width="1" fill="none"></path></g></g><mask></mask><g stroke-linecap="round"><g transform="translate(897.2730631620054 44.867180875157516) rotate(0 -298.1416586563161 30.85972639998421)"><path d="M-0.5 -0.35 C-85.77 1.21, -411.76 -1.42, -511.19 9 C-610.62 19.42, -582.65 53.07, -597.06 62.16 M1.44 -1.58 C-84.06 -0.37, -412.43 -3.8, -512.29 7.01 C-612.16 17.83, -583.51 54.22, -597.73 63.3" stroke="#1e1e1e" stroke-width="1" fill="none"></path></g><g transform="translate(897.2730631620054 44.867180875157516) rotate(0 -298.1416586563161 30.85972639998421)"><path d="M-597.01 32.84 C-596.54 43.78, -597.96 52.97, -595.98 61.48 M-595.5 33.3 C-595.87 43.38, -597.72 54.74, -597.45 63.48" stroke="#1e1e1e" stroke-width="1" fill="none"></path></g><g transform="translate(897.2730631620054 44.867180875157516) rotate(0 -298.1416586563161 30.85972639998421)"><path d="M-578.05 40.69 C-583.97 48.9, -591.82 55.43, -595.98 61.48 M-576.54 41.15 C-583.85 48.29, -592.62 56.78, -597.45 63.48" stroke="#1e1e1e" stroke-width="1" fill="none"></path></g></g><mask></mask><g transform="translate(814.0545905987343 275.0490466181223) rotate(0 26.883333206176758 12.5)"><text x="26.883333206176758" y="0" font-family="Virgil, Segoe UI Emoji" font-size="20px" fill="#1e1e1e" text-anchor="middle" style="white-space: pre;" direction="ltr" dominant-baseline="text-before-edge">WSGI</text></g><g stroke-linecap="round" transform="translate(471.4574046593329 324.17199184491085) rotate(0 38.144787909092884 34.1595115603817)"><path d="M4.55 3.95 C4.55 3.95, 4.55 3.95, 4.55 3.95 M4.55 3.95 C4.55 3.95, 4.55 3.95, 4.55 3.95 M1 14.12 C2.05 12.63, 4.9 9.65, 10.85 2.8 M1 14.12 C5.1 9.62, 8.83 4.77, 10.85 2.8 M1.4 19.77 C6.17 13.73, 14.83 5.73, 17.8 0.9 M1.4 19.77 C5.69 15.79, 9.11 10.74, 17.8 0.9 M1.14 26.16 C7.97 20.98, 10.59 14.93, 23.44 0.5 M1.14 26.16 C8.99 16.44, 19.21 5.1, 23.44 0.5 M1.53 31.81 C8.3 22.98, 15.87 14.54, 28.43 0.86 M1.53 31.81 C11.27 20.81, 20.79 8.28, 28.43 0.86 M1.27 38.21 C14.72 24.21, 29.04 8.19, 34.07 0.47 M1.27 38.21 C12.76 24.47, 25.01 13.16, 34.07 0.47 M1.01 44.6 C9.62 35.86, 17.88 22.19, 39.06 0.83 M1.01 44.6 C9.66 35.79, 17.78 25.41, 39.06 0.83 M1.4 50.25 C10.71 38.14, 21.46 25.06, 44.05 1.19 M1.4 50.25 C14.45 32.88, 28.32 18.4, 44.05 1.19 M1.14 56.64 C15.08 39.9, 30.55 21.1, 49.69 0.8 M1.14 56.64 C20.98 35.17, 39.18 13.55, 49.69 0.8 M3.51 60.02 C15.3 45.48, 30.09 29.56, 54.68 1.16 M3.51 60.02 C17.11 44.65, 29.43 30.06, 54.68 1.16 M4.56 64.91 C23.62 41.72, 43.98 21.91, 60.32 0.76 M4.56 64.91 C18.57 49.8, 32.42 34.4, 60.32 0.76 M8.89 66.03 C24.26 50.8, 36.53 35.29, 64.65 1.88 M8.89 66.03 C26.81 45.55, 47.31 22.12, 64.65 1.88 M12.56 67.9 C25.93 51.16, 41.54 32.95, 68.33 3.75 M12.56 67.9 C28.07 50, 43.83 33.16, 68.33 3.75 M15.58 70.52 C30.02 52.48, 45.69 34.18, 72.66 4.86 M15.58 70.52 C31.58 52.41, 47.8 32.93, 72.66 4.86 M21.22 70.13 C34.07 56.89, 43.69 43.35, 75.02 8.24 M21.22 70.13 C39.85 48.89, 56.25 30.18, 75.02 8.24 M26.21 70.49 C45.4 48.12, 67.93 24.32, 77.38 11.62 M26.21 70.49 C42.42 51.11, 58.32 33.23, 77.38 11.62 M31.85 70.09 C40.61 59.36, 51.51 47.34, 77.12 18.02 M31.85 70.09 C47.52 50.54, 64.06 32.4, 77.12 18.02 M36.84 70.45 C43.43 59.28, 54.14 50.53, 76.86 24.41 M36.84 70.45 C48.26 59.26, 58.23 46.14, 76.86 24.41 M41.83 70.81 C51.74 61.07, 61.24 51.51, 77.26 30.06 M41.83 70.81 C52.35 58.28, 63.15 47.44, 77.26 30.06 M47.47 70.42 C58.25 57.48, 66.93 45.53, 76.99 36.45 M47.47 70.42 C56.77 59.44, 67.72 47.13, 76.99 36.45 M52.46 70.78 C58.58 65.02, 62.44 59.32, 76.73 42.85 M52.46 70.78 C61.86 60.19, 69.91 50.18, 76.73 42.85 M59.41 68.87 C66.67 59.53, 71.04 51.35, 77.13 48.5 M59.41 68.87 C65.02 61.81, 70.69 55.54, 77.13 48.5 M65.71 67.72 C68.73 63.89, 69.41 62.62, 76.21 55.65 M65.71 67.72 C69.46 63.05, 72.73 58.52, 76.21 55.65" stroke="#4dabf7" stroke-width="0.5" fill="none"></path><path d="M17.08 0 M17.08 0 C29.95 1.33, 43.91 0.03, 59.21 0 M17.08 0 C26.09 -1, 34.3 -0.27, 59.21 0 M59.21 0 C69.15 0.44, 76.66 4.32, 76.29 17.08 M59.21 0 C70.69 -1.97, 74.12 7.47, 76.29 17.08 M76.29 17.08 C75.66 25.34, 74.51 36.21, 76.29 51.24 M76.29 17.08 C75.7 28.65, 76.78 39.2, 76.29 51.24 M76.29 51.24 C76.9 62.69, 70.54 69.55, 59.21 68.32 M76.29 51.24 C76.73 62.87, 72.54 68.48, 59.21 68.32 M59.21 68.32 C43.35 70.15, 30.49 69.41, 17.08 68.32 M59.21 68.32 C49 68.02, 36.48 68.83, 17.08 68.32 M17.08 68.32 C6.13 69.8, -1.18 61.69, 0 51.24 M17.08 68.32 C6.91 66.09, 1.37 61.08, 0 51.24 M0 51.24 C1.32 39.93, -0.46 26.93, 0 17.08 M0 51.24 C-1.06 42.73, 0.75 34.76, 0 17.08 M0 17.08 C1.93 7.19, 5.03 -1.9, 17.08 0 M0 17.08 C1.35 7.61, 6.52 -0.62, 17.08 0" stroke="#1e1e1e" stroke-width="1" fill="none"></path></g><g transform="translate(490.25219218695605 348.33150340529255) rotate(0 19.350000381469727 10)"><text x="19.350000381469727" y="0" font-family="Virgil, Segoe UI Emoji" font-size="16px" fill="#1e1e1e" text-anchor="middle" style="white-space: pre;" direction="ltr" dominant-baseline="text-before-edge">Room</text></g><g stroke-linecap="round" transform="translate(220.0862970901965 593.1536456469992) rotate(0 38.14478790909289 34.1595115603817)"><path d="M4.55 3.95 C4.55 3.95, 4.55 3.95, 4.55 3.95 M4.55 3.95 C4.55 3.95, 4.55 3.95, 4.55 3.95 M1 14.12 C1.69 13.29, 4.33 9.44, 10.85 2.8 M1 14.12 C4.27 11.3, 6.54 7.28, 10.85 2.8 M1.4 19.77 C3.07 14.37, 8.36 9.73, 17.8 0.9 M1.4 19.77 C4.53 15.13, 7.86 12.28, 17.8 0.9 M1.14 26.16 C8.4 15.04, 16.27 7.92, 23.44 0.5 M1.14 26.16 C7.66 18.76, 13.59 10.66, 23.44 0.5 M1.53 31.81 C8.93 22.07, 13.22 16.75, 28.43 0.86 M1.53 31.81 C8.06 24.21, 14.52 17.43, 28.43 0.86 M1.27 38.21 C10.2 26.4, 21.18 14.59, 34.07 0.47 M1.27 38.21 C12.62 25.11, 21.68 14.15, 34.07 0.47 M1.01 44.6 C12.32 35.01, 19.39 23.7, 39.06 0.83 M1.01 44.6 C10.07 35.58, 18.84 25.53, 39.06 0.83 M1.4 50.25 C11.19 38.21, 23.15 25.43, 44.05 1.19 M1.4 50.25 C12.19 39.48, 20.55 27.53, 44.05 1.19 M1.14 56.64 C14.53 41.78, 25.65 27.38, 49.69 0.8 M1.14 56.64 C18.5 37.17, 37.39 15.94, 49.69 0.8 M3.51 60.02 C13.69 47.79, 26.56 33.24, 54.68 1.16 M3.51 60.02 C20.34 42.2, 34.75 24.07, 54.68 1.16 M4.56 64.91 C21.51 47.91, 34.5 30.5, 60.32 0.76 M4.56 64.91 C19.2 48.4, 32.55 31.62, 60.32 0.76 M8.89 66.03 C30.61 42.92, 49.82 20.62, 64.65 1.88 M8.89 66.03 C26.01 46.82, 42.52 26.76, 64.65 1.88 M12.56 67.9 C23.52 55.45, 36.91 41.12, 68.33 3.75 M12.56 67.9 C25.34 52.72, 39.09 37.26, 68.33 3.75 M15.58 70.52 C33.5 49.68, 50.2 28.82, 72.66 4.86 M15.58 70.52 C36.04 47.87, 57.09 23.74, 72.66 4.86 M21.22 70.13 C42.76 49.12, 62.45 23.73, 75.02 8.24 M21.22 70.13 C38.86 51.14, 54.92 32.86, 75.02 8.24 M26.21 70.49 C47.2 46.85, 67.41 24.9, 77.38 11.62 M26.21 70.49 C43.19 50.75, 61.82 30.53, 77.38 11.62 M31.85 70.09 C44.89 51.58, 61.23 38.09, 77.12 18.02 M31.85 70.09 C47.08 50.86, 62.52 32.58, 77.12 18.02 M36.84 70.45 C53.58 54.25, 68.12 35.47, 76.86 24.41 M36.84 70.45 C46.18 59.62, 56.82 46.48, 76.86 24.41 M41.83 70.81 C56.85 53.52, 68.08 37.71, 77.26 30.06 M41.83 70.81 C55.31 57.05, 66.99 42.94, 77.26 30.06 M47.47 70.42 C53.17 62.22, 62.51 54.64, 76.99 36.45 M47.47 70.42 C53.95 63.3, 60.85 54.56, 76.99 36.45 M52.46 70.78 C59.59 62.21, 66.04 55.55, 76.73 42.85 M52.46 70.78 C56.5 64.78, 62.73 58.84, 76.73 42.85 M59.41 68.87 C62.37 62.57, 68.91 56.37, 77.13 48.5 M59.41 68.87 C65.68 62.14, 71.52 53.89, 77.13 48.5 M65.71 67.72 C68.3 63.55, 72.58 59.06, 76.21 55.65 M65.71 67.72 C67.92 65.06, 71.13 61.03, 76.21 55.65" stroke="#4dabf7" stroke-width="0.5" fill="none"></path><path d="M17.08 0 M17.08 0 C33.18 -0.07, 48.22 -0.21, 59.21 0 M17.08 0 C25.48 -0.24, 36.46 0.21, 59.21 0 M59.21 0 C72.49 1.03, 75.13 6.87, 76.29 17.08 M59.21 0 C69.56 1.8, 77.46 6.77, 76.29 17.08 M76.29 17.08 C75.29 26.56, 76.24 36.27, 76.29 51.24 M76.29 17.08 C76.08 25.68, 75.56 34.32, 76.29 51.24 M76.29 51.24 C77.5 62.93, 71.34 67.51, 59.21 68.32 M76.29 51.24 C77.75 64.5, 69.96 66.26, 59.21 68.32 M59.21 68.32 C50.77 66.83, 37.52 67.94, 17.08 68.32 M59.21 68.32 C45.53 68.27, 31.67 67.63, 17.08 68.32 M17.08 68.32 C5.65 67.56, 0.39 61.73, 0 51.24 M17.08 68.32 C4.74 67.01, 1.54 62.51, 0 51.24 M0 51.24 C0.72 44.39, -1.69 33.36, 0 17.08 M0 51.24 C-0.8 42.3, 0.06 32.63, 0 17.08 M0 17.08 C-1.51 5.65, 3.79 1.97, 17.08 0 M0 17.08 C2.06 5.19, 4.59 2.12, 17.08 0" stroke="#1e1e1e" stroke-width="1" fill="none"></path></g><g transform="translate(240.34775179311262 617.313157207381) rotate(0 17.883333206176758 10)"><text x="17.883333206176758" y="0" font-family="Virgil, Segoe UI Emoji" font-size="16px" fill="#1e1e1e" text-anchor="middle" style="white-space: pre;" direction="ltr" dominant-baseline="text-before-edge">User</text></g><g stroke-linecap="round" transform="translate(232.4529406319736 406.7714162834398) rotate(0 38.14478790909289 34.159511560381674)"><path d="M4.55 3.95 C4.55 3.95, 4.55 3.95, 4.55 3.95 M4.55 3.95 C4.55 3.95, 4.55 3.95, 4.55 3.95 M1 14.12 C4.27 11.37, 5.51 10.05, 10.85 2.8 M1 14.12 C4.68 9.74, 8.19 5.61, 10.85 2.8 M1.4 19.77 C7.64 14.01, 12.76 6.79, 17.8 0.9 M1.4 19.77 C4.84 14.89, 8.15 12.23, 17.8 0.9 M1.14 26.16 C7.36 19.49, 12.58 13.22, 23.44 0.5 M1.14 26.16 C6.41 19.62, 12.23 11.93, 23.44 0.5 M1.53 31.81 C11.51 18.7, 23.75 9.02, 28.43 0.86 M1.53 31.81 C10.34 21.61, 19.48 11.97, 28.43 0.86 M1.27 38.21 C9.72 28.8, 21.36 17.36, 34.07 0.47 M1.27 38.21 C14.56 23.41, 27.21 10.28, 34.07 0.47 M1.01 44.6 C12.65 34.98, 19.79 21.43, 39.06 0.83 M1.01 44.6 C11.01 34.88, 19.01 22.69, 39.06 0.83 M1.4 50.25 C17.18 29.79, 34.06 10.49, 44.05 1.19 M1.4 50.25 C17.68 30.01, 35.55 11.61, 44.05 1.19 M1.14 56.64 C14.64 43.82, 23.92 30.43, 49.69 0.8 M1.14 56.64 C13.16 43.15, 25.17 30.51, 49.69 0.8 M3.51 60.02 C21.97 38.01, 40.61 18.14, 54.68 1.16 M3.51 60.02 C23.84 36.55, 43.5 13.45, 54.68 1.16 M4.56 64.91 C20.04 46.01, 35.96 30.14, 60.32 0.76 M4.56 64.91 C17.7 50.62, 28.57 35.45, 60.32 0.76 M8.89 66.03 C31.2 38.43, 53.17 13.12, 64.65 1.88 M8.89 66.03 C20.78 52.56, 34.58 37.94, 64.65 1.88 M12.56 67.9 C29.53 48.27, 47.78 26.54, 68.33 3.75 M12.56 67.9 C33.58 45.06, 52.24 22.79, 68.33 3.75 M15.58 70.52 C32.72 51.67, 48.68 30.98, 72.66 4.86 M15.58 70.52 C36.84 46.47, 59.3 22.19, 72.66 4.86 M21.22 70.13 C41.64 45.86, 63.32 23.73, 75.02 8.24 M21.22 70.13 C40.86 46.54, 62.82 22.77, 75.02 8.24 M26.21 70.49 C38.89 56.25, 56.52 37.85, 77.38 11.62 M26.21 70.49 C39.17 56.57, 50.21 43.02, 77.38 11.62 M31.85 70.09 C46.63 55.26, 59.03 35.53, 77.12 18.02 M31.85 70.09 C49.56 50.65, 65.73 30.39, 77.12 18.02 M36.84 70.45 C48.55 58.93, 60.43 46.12, 76.86 24.41 M36.84 70.45 C47.45 57.46, 58.77 46.26, 76.86 24.41 M41.83 70.81 C55.62 55.32, 67.86 39.03, 77.26 30.06 M41.83 70.81 C53.55 57.38, 65.24 43.42, 77.26 30.06 M47.47 70.42 C54.46 59.19, 65.9 48.7, 76.99 36.45 M47.47 70.42 C54.49 60.61, 61.87 51.69, 76.99 36.45 M52.46 70.78 C58.59 61.42, 70 51.22, 76.73 42.85 M52.46 70.78 C61.39 59.51, 71.15 49.75, 76.73 42.85 M59.41 68.87 C62.12 64.41, 69.15 56.87, 77.13 48.5 M59.41 68.87 C62.66 64.05, 66.58 59.29, 77.13 48.5 M65.71 67.72 C68.88 63.76, 73.4 60.64, 76.21 55.65 M65.71 67.72 C68.29 64.92, 70.69 61.38, 76.21 55.65" stroke="#4dabf7" stroke-width="0.5" fill="none"></path><path d="M17.08 0 M17.08 0 C30.62 1.7, 42.36 0.27, 59.21 0 M17.08 0 C30.55 1.12, 44.19 0.1, 59.21 0 M59.21 0 C70.43 -0.73, 77.57 5.56, 76.29 17.08 M59.21 0 C72.84 0.29, 78.08 4.68, 76.29 17.08 M76.29 17.08 C76.52 22.69, 76.53 30.31, 76.29 51.24 M76.29 17.08 C77.3 29.19, 76.11 43.6, 76.29 51.24 M76.29 51.24 C74.47 62.74, 71.26 69.54, 59.21 68.32 M76.29 51.24 C78.22 63.76, 71.78 66.41, 59.21 68.32 M59.21 68.32 C43.95 66.63, 24.46 67.37, 17.08 68.32 M59.21 68.32 C47.3 68.22, 35.97 69.02, 17.08 68.32 M17.08 68.32 C3.98 66.94, 1.71 62.81, 0 51.24 M17.08 68.32 C4.25 66.34, 0.29 62.78, 0 51.24 M0 51.24 C0.61 43.68, -1.46 34.71, 0 17.08 M0 51.24 C0.23 37.26, -0.48 24.94, 0 17.08 M0 17.08 C-0.18 7.13, 6.95 1.83, 17.08 0 M0 17.08 C1.71 3.73, 4.96 0.52, 17.08 0" stroke="#1e1e1e" stroke-width="1" fill="none"></path></g><g transform="translate(237.66439419048055 430.93092784382145) rotate(0 32.93333435058594 10)"><text x="32.93333435058594" y="0" font-family="Virgil, Segoe UI Emoji" font-size="16px" fill="#1e1e1e" text-anchor="middle" style="white-space: pre;" direction="ltr" dominant-baseline="text-before-edge">Message</text></g><g stroke-linecap="round" transform="translate(239.84725163687514 216.452095944753) rotate(0 38.14478790909289 34.159511560381674)"><path d="M4.55 3.95 C4.55 3.95, 4.55 3.95, 4.55 3.95 M4.55 3.95 C4.55 3.95, 4.55 3.95, 4.55 3.95 M1 14.12 C4.27 12.12, 6.06 6.58, 10.85 2.8 M1 14.12 C3.89 10.46, 8.33 5.64, 10.85 2.8 M1.4 19.77 C4.61 15.66, 9.33 11.56, 17.8 0.9 M1.4 19.77 C6.36 13.31, 11.59 9.37, 17.8 0.9 M1.14 26.16 C8.62 18.54, 15.08 8.54, 23.44 0.5 M1.14 26.16 C8.28 16.57, 17.78 7.54, 23.44 0.5 M1.53 31.81 C8.56 24.25, 16.8 14.44, 28.43 0.86 M1.53 31.81 C8.2 24.96, 13.08 17.26, 28.43 0.86 M1.27 38.21 C15.29 22.8, 27.09 9.86, 34.07 0.47 M1.27 38.21 C10.24 27.66, 18.17 19.08, 34.07 0.47 M1.01 44.6 C10.54 34.03, 21.87 23.14, 39.06 0.83 M1.01 44.6 C9.79 36.3, 17.08 25.02, 39.06 0.83 M1.4 50.25 C12.36 35.7, 23.15 25.93, 44.05 1.19 M1.4 50.25 C16.02 32.23, 31.62 14.65, 44.05 1.19 M1.14 56.64 C19.18 38.24, 34.75 22.11, 49.69 0.8 M1.14 56.64 C16.05 39.75, 30.99 21.13, 49.69 0.8 M3.51 60.02 C15.76 44.82, 32.5 31.21, 54.68 1.16 M3.51 60.02 C16.64 44.54, 31.31 27.37, 54.68 1.16 M4.56 64.91 C19.3 44.82, 36.01 26.88, 60.32 0.76 M4.56 64.91 C15.72 50.81, 27.23 38.85, 60.32 0.76 M8.89 66.03 C21.01 49.63, 33.32 37.3, 64.65 1.88 M8.89 66.03 C31.25 40.35, 53.26 14.92, 64.65 1.88 M12.56 67.9 C23.57 52.43, 36.28 39.78, 68.33 3.75 M12.56 67.9 C29.6 46.85, 49.27 24.77, 68.33 3.75 M15.58 70.52 C29 54.05, 43.03 40.79, 72.66 4.86 M15.58 70.52 C28.37 53.31, 43.16 38.57, 72.66 4.86 M21.22 70.13 C39.88 49.41, 55.25 28.79, 75.02 8.24 M21.22 70.13 C40.03 47.14, 58.74 24.6, 75.02 8.24 M26.21 70.49 C41.8 52.73, 54.7 39.21, 77.38 11.62 M26.21 70.49 C39.01 57, 51.36 42.24, 77.38 11.62 M31.85 70.09 C49.26 50.16, 64.37 30.13, 77.12 18.02 M31.85 70.09 C46.22 54.2, 58.9 39.92, 77.12 18.02 M36.84 70.45 C53.4 54.41, 65.88 35.31, 76.86 24.41 M36.84 70.45 C45.17 58.81, 55.19 48.53, 76.86 24.41 M41.83 70.81 C50.44 60.95, 60.5 49.75, 77.26 30.06 M41.83 70.81 C55.07 54.93, 68.74 38.73, 77.26 30.06 M47.47 70.42 C55.38 60.41, 66.4 47.07, 76.99 36.45 M47.47 70.42 C56.55 60.26, 64.94 50.69, 76.99 36.45 M52.46 70.78 C57.56 63.29, 60.81 58.34, 76.73 42.85 M52.46 70.78 C57.38 64.18, 63.39 56.96, 76.73 42.85 M59.41 68.87 C64.66 63.18, 70.07 54.57, 77.13 48.5 M59.41 68.87 C66.25 61.52, 72.26 54.24, 77.13 48.5 M65.71 67.72 C67.38 65.51, 68.56 63.87, 76.21 55.65 M65.71 67.72 C68.33 64.01, 71.56 60.24, 76.21 55.65" stroke="#4dabf7" stroke-width="0.5" fill="none"></path><path d="M17.08 0 M17.08 0 C33.52 -1.5, 48.17 0.27, 59.21 0 M17.08 0 C32.36 -0.11, 47.17 0.62, 59.21 0 M59.21 0 C71.01 1.48, 76.8 7.65, 76.29 17.08 M59.21 0 C69.85 -0.15, 78.25 4.73, 76.29 17.08 M76.29 17.08 C75.53 25.35, 75.4 38.31, 76.29 51.24 M76.29 17.08 C76 29.93, 75.5 41.83, 76.29 51.24 M76.29 51.24 C77.65 61.08, 71.01 68, 59.21 68.32 M76.29 51.24 C78.23 62.32, 68.91 68.49, 59.21 68.32 M59.21 68.32 C42.67 69.79, 27.74 66.84, 17.08 68.32 M59.21 68.32 C48.07 68.14, 38.14 69.16, 17.08 68.32 M17.08 68.32 C5.97 68.18, 0.18 61.73, 0 51.24 M17.08 68.32 C3.67 66.97, -1.84 63.92, 0 51.24 M0 51.24 C1.84 43.06, 1.35 37.99, 0 17.08 M0 51.24 C-0.65 38.89, 1 28.76, 0 17.08 M0 17.08 C-1.63 5.52, 6.96 1.02, 17.08 0 M0 17.08 C-0.73 4.49, 4.88 1.39, 17.08 0" stroke="#1e1e1e" stroke-width="1" fill="none"></path></g><g transform="translate(258.6420391644983 240.6116075051347) rotate(0 19.350000381469727 10)"><text x="19.350000381469727" y="0" font-family="Virgil, Segoe UI Emoji" font-size="16px" fill="#1e1e1e" text-anchor="middle" style="white-space: pre;" direction="ltr" dominant-baseline="text-before-edge">Room</text></g><g transform="translate(204.8942128237986 297.25824914095364) rotate(0 71.43333435058594 40)"><text x="71.43333435058594" y="0" font-family="Virgil, Segoe UI Emoji" font-size="16px" fill="#1e1e1e" text-anchor="middle" style="white-space: pre;" direction="ltr" dominant-baseline="text-before-edge">Rooms have many </text><text x="71.43333435058594" y="20" font-family="Virgil, Segoe UI Emoji" font-size="16px" fill="#1e1e1e" text-anchor="middle" style="white-space: pre;" direction="ltr" dominant-baseline="text-before-edge">messages</text><text x="71.43333435058594" y="40" font-family="Virgil, Segoe UI Emoji" font-size="16px" fill="#1e1e1e" text-anchor="middle" style="white-space: pre;" direction="ltr" dominant-baseline="text-before-edge">Rooms have many </text><text x="71.43333435058594" y="60" font-family="Virgil, Segoe UI Emoji" font-size="16px" fill="#1e1e1e" text-anchor="middle" style="white-space: pre;" direction="ltr" dominant-baseline="text-before-edge">users</text></g><g stroke-linecap="round" transform="translate(44.16821873678904 216.0825806183484) rotate(0 42.5 35)"><path d="M2.16 7.18 C2.16 7.18, 2.16 7.18, 2.16 7.18 M2.16 7.18 C2.16 7.18, 2.16 7.18, 2.16 7.18 M1.24 14.33 C4.14 11.25, 6.66 6.27, 9.77 4.52 M1.24 14.33 C3.11 11.94, 4.67 10.63, 9.77 4.52 M0.98 20.73 C7.59 11.85, 14.19 5.67, 18.04 1.11 M0.98 20.73 C6.93 13.38, 13.23 7.05, 18.04 1.11 M1.38 26.37 C11.71 18.33, 18.81 6.96, 23.68 0.71 M1.38 26.37 C6.55 20.03, 10.25 14.92, 23.68 0.71 M1.12 32.77 C10.69 19.4, 24.47 7.83, 28.67 1.07 M1.12 32.77 C8.55 23.4, 17.79 13.13, 28.67 1.07 M1.51 38.41 C12.44 27.24, 19.79 16.86, 34.31 0.68 M1.51 38.41 C10.37 28.29, 18.32 19.84, 34.31 0.68 M1.25 44.81 C16.45 29.51, 29.09 13.56, 39.3 1.04 M1.25 44.81 C13.59 30.33, 27.52 14.24, 39.3 1.04 M0.99 51.21 C12.28 38.95, 19.65 29.58, 44.94 0.64 M0.99 51.21 C17.19 31.75, 36.11 12.07, 44.94 0.64 M0.73 57.61 C12.01 46.57, 21.46 31.79, 49.93 1 M0.73 57.61 C12.79 42.65, 25.31 28.9, 49.93 1 M3.09 60.99 C21 39.74, 37.87 18.24, 55.57 0.61 M3.09 60.99 C15.97 47.1, 27.41 33.37, 55.57 0.61 M4.8 65.12 C18.9 47.36, 35.59 31.05, 60.56 0.97 M4.8 65.12 C26.56 39.25, 50.59 13.36, 60.56 0.97 M7.16 68.5 C23.42 49.58, 44.95 26.07, 65.55 1.33 M7.16 68.5 C27.78 44.45, 48.38 21.56, 65.55 1.33 M11.49 69.61 C29.28 52.19, 44.9 30.26, 71.85 0.18 M11.49 69.61 C30.58 47.24, 49.24 24.95, 71.85 0.18 M15.16 71.48 C28.29 55.58, 41.63 41.93, 75.52 2.05 M15.16 71.48 C38.95 43.65, 61.35 18.03, 75.52 2.05 M20.81 71.09 C38.68 48.68, 57.13 30.57, 79.2 3.92 M20.81 71.09 C42.77 48.03, 63.14 23.19, 79.2 3.92 M25.79 71.45 C48.57 48.72, 67.69 25.6, 82.87 5.79 M25.79 71.45 C48.17 45.2, 71.32 19.64, 82.87 5.79 M30.78 71.81 C48.07 53.15, 63.82 32.55, 84.58 9.92 M30.78 71.81 C43.88 57.7, 56.17 42.3, 84.58 9.92 M36.42 71.41 C53.88 54.65, 66.43 35.06, 84.97 15.57 M36.42 71.41 C50.8 53.3, 66.95 36.67, 84.97 15.57 M41.41 71.77 C55.07 53.89, 68.99 35.79, 87.34 18.94 M41.41 71.77 C54.14 54.96, 69.56 40.03, 87.34 18.94 M47.05 71.38 C58.19 60.89, 68.03 45.96, 87.07 25.34 M47.05 71.38 C56.69 59.82, 67.35 47.25, 87.07 25.34 M52.04 71.74 C60.14 63.46, 69.09 51.74, 86.81 31.74 M52.04 71.74 C65.7 56.38, 80.32 40.36, 86.81 31.74 M57.69 71.35 C66.86 62.06, 72.11 52.64, 87.21 37.38 M57.69 71.35 C64.26 65.05, 69.68 57.92, 87.21 37.38 M62.67 71.71 C72.27 62.98, 79.62 51.79, 86.95 43.78 M62.67 71.71 C68.5 66.08, 74.4 57.34, 86.95 43.78 M68.32 71.31 C76.22 62.77, 80.38 56.59, 86.68 50.18 M68.32 71.31 C75.23 63.24, 82.01 54.98, 86.68 50.18 M75.27 69.41 C79.34 64.75, 80.25 60.98, 85.77 57.33 M75.27 69.41 C78.58 66.53, 81.58 62.76, 85.77 57.33" stroke="#4dabf7" stroke-width="0.5" fill="none"></path><path d="M17.5 0 M17.5 0 C32.28 -0.22, 43.78 -1.9, 67.5 0 M17.5 0 C29.96 -1.19, 40.64 -0.66, 67.5 0 M67.5 0 C79.77 0.31, 83.8 5.99, 85 17.5 M67.5 0 C78.67 -1.64, 85.73 8.08, 85 17.5 M85 17.5 C85.92 23.68, 83.66 33.49, 85 52.5 M85 17.5 C86.18 28.89, 85.05 40.58, 85 52.5 M85 52.5 C83.01 65.11, 77.53 69.18, 67.5 70 M85 52.5 C85 65.72, 78.53 68.17, 67.5 70 M67.5 70 C57.54 69.51, 46.34 70.28, 17.5 70 M67.5 70 C50.94 69.99, 34.42 69.03, 17.5 70 M17.5 70 C6.6 70.52, -1.45 63.85, 0 52.5 M17.5 70 C5.49 70.66, 0.52 65.05, 0 52.5 M0 52.5 C0.98 44.05, 1.34 35.57, 0 17.5 M0 52.5 C-0.72 40.99, 0.97 27.66, 0 17.5 M0 17.5 C-0.24 4.97, 6.47 1.98, 17.5 0 M0 17.5 C-1.6 7.52, 6.49 2.15, 17.5 0" stroke="#1e1e1e" stroke-width="1" fill="none"></path></g><g transform="translate(49.38488591208201 241.0825806183484) rotate(0 37.28333282470703 10)"><text x="37.28333282470703" y="0" font-family="Virgil, Segoe UI Emoji" font-size="16px" fill="#1e1e1e" text-anchor="middle" style="white-space: pre;" direction="ltr" dominant-baseline="text-before-edge">Messages</text></g><g transform="translate(438.1845196251676 408.17291421448) rotate(0 67.36666870117188 30)"><text x="67.36666870117188" y="0" font-family="Virgil, Segoe UI Emoji" font-size="16px" fill="#1e1e1e" text-anchor="middle" style="white-space: pre;" direction="ltr" dominant-baseline="text-before-edge">Handle Real Time</text><text x="67.36666870117188" y="20" font-family="Virgil, Segoe UI Emoji" font-size="16px" fill="#1e1e1e" text-anchor="middle" style="white-space: pre;" direction="ltr" dominant-baseline="text-before-edge">Communication</text><text x="67.36666870117188" y="40" font-family="Virgil, Segoe UI Emoji" font-size="16px" fill="#1e1e1e" text-anchor="middle" style="white-space: pre;" direction="ltr" dominant-baseline="text-before-edge">Using Channels</text></g><g transform="translate(735.5523695723411 322.76718248392723) rotate(0 115.06666564941406 40)"><text x="115.06666564941406" y="0" font-family="Virgil, Segoe UI Emoji" font-size="16px" fill="#1e1e1e" text-anchor="middle" style="white-space: pre;" direction="ltr" dominant-baseline="text-before-edge">CRUD Operations</text><text x="115.06666564941406" y="20" font-family="Virgil, Segoe UI Emoji" font-size="16px" fill="#1e1e1e" text-anchor="middle" style="white-space: pre;" direction="ltr" dominant-baseline="text-before-edge">Rooms, Users, and Messages</text><text x="115.06666564941406" y="40" font-family="Virgil, Segoe UI Emoji" font-size="16px" fill="#1e1e1e" text-anchor="middle" style="white-space: pre;" direction="ltr" dominant-baseline="text-before-edge">Authentication (Django Auth)</text><text x="115.06666564941406" y="60" font-family="Virgil, Segoe UI Emoji" font-size="16px" fill="#1e1e1e" text-anchor="middle" style="white-space: pre;" direction="ltr" dominant-baseline="text-before-edge"></text></g><g transform="translate(16.090945734793763 300.01608994369) rotate(0 68.56666564941406 20)"><text x="68.56666564941406" y="0" font-family="Virgil, Segoe UI Emoji" font-size="16px" fill="#1e1e1e" text-anchor="middle" style="white-space: pre;" direction="ltr" dominant-baseline="text-before-edge">Messages update</text><text x="68.56666564941406" y="20" font-family="Virgil, Segoe UI Emoji" font-size="16px" fill="#1e1e1e" text-anchor="middle" style="white-space: pre;" direction="ltr" dominant-baseline="text-before-edge">in real time</text></g><g transform="translate(10 346.33988922247653) rotate(0 75.16666412353516 20)"><text x="75.16666412353516" y="0" font-family="Virgil, Segoe UI Emoji" font-size="16px" fill="#1e1e1e" text-anchor="middle" style="white-space: pre;" direction="ltr" dominant-baseline="text-before-edge">Messages get sent</text><text x="75.16666412353516" y="20" font-family="Virgil, Segoe UI Emoji" font-size="16px" fill="#1e1e1e" text-anchor="middle" style="white-space: pre;" direction="ltr" dominant-baseline="text-before-edge">in bulk to DB</text></g><g transform="translate(193.24990181889706 487.0455649334325) rotate(0 75.68333435058594 40)"><text x="75.68333435058594" y="0" font-family="Virgil, Segoe UI Emoji" font-size="16px" fill="#1e1e1e" text-anchor="middle" style="white-space: pre;" direction="ltr" dominant-baseline="text-before-edge">Messages have one</text><text x="75.68333435058594" y="20" font-family="Virgil, Segoe UI Emoji" font-size="16px" fill="#1e1e1e" text-anchor="middle" style="white-space: pre;" direction="ltr" dominant-baseline="text-before-edge">user</text><text x="75.68333435058594" y="40" font-family="Virgil, Segoe UI Emoji" font-size="16px" fill="#1e1e1e" text-anchor="middle" style="white-space: pre;" direction="ltr" dominant-baseline="text-before-edge">Messages have one</text><text x="75.68333435058594" y="60" font-family="Virgil, Segoe UI Emoji" font-size="16px" fill="#1e1e1e" text-anchor="middle" style="white-space: pre;" direction="ltr" dominant-baseline="text-before-edge">room</text></g><g transform="translate(202.96656899419 670.2601598326651) rotate(0 65.96666717529297 40)"><text x="65.96666717529297" y="0" font-family="Virgil, Segoe UI Emoji" font-size="16px" fill="#1e1e1e" text-anchor="middle" style="white-space: pre;" direction="ltr" dominant-baseline="text-before-edge">Users have many</text><text x="65.96666717529297" y="20" font-family="Virgil, Segoe UI Emoji" font-size="16px" fill="#1e1e1e" text-anchor="middle" style="white-space: pre;" direction="ltr" dominant-baseline="text-before-edge">rooms</text><text x="65.96666717529297" y="40" font-family="Virgil, Segoe UI Emoji" font-size="16px" fill="#1e1e1e" text-anchor="middle" style="white-space: pre;" direction="ltr" dominant-baseline="text-before-edge">Users have many</text><text x="65.96666717529297" y="60" font-family="Virgil, Segoe UI Emoji" font-size="16px" fill="#1e1e1e" text-anchor="middle" style="white-space: pre;" direction="ltr" dominant-baseline="text-before-edge">messages</text></g></svg>