<svg width="100" height="100" viewBox="0 0 100 100" fill="none" xmlns="http://www.w3.org/2000/svg">
<g clip-path="url(#clip0_41_48)">
<circle cx="50" cy="50" r="50" fill="white"/>
<path fill-rule="evenodd" clip-rule="evenodd" d="M73.0544 14.5779C73.0544 19.1078 69.543 22.8176 65.0936 23.1339L62.2345 30.5241L73.0169 34.9184C74.4514 34.1776 76.189 34.0456 77.8013 34.7027C80.726 35.8946 82.1307 39.2318 80.9388 42.1566C79.7468 45.0813 76.4096 46.486 73.4849 45.2941C71.6824 44.5595 70.4572 43.0101 70.0614 41.2445L59.7178 37.0291L47.7795 67.887C43.2851 85.8169 54.3577 82.1261 65.4303 78.4352C63.72 77.5535 62.7888 77.0317 61.6179 75.5759C66.9597 74.7231 70.0672 72.8475 75.9143 66.045C76.8419 74.4895 75.0693 79.0788 68.2895 87.013C68.3393 85.3216 68.3234 85.2888 67.8902 84.398L67.8902 84.3979C67.7519 84.1135 67.5711 83.7417 67.3364 83.2007C61.6179 87.013 52.0879 89.8719 43.5101 89.8719C38.4945 90.7535 36.3746 91.7661 33.6475 93.0688L33.647 93.069L33.6455 93.0698C33.02 93.3685 32.3626 93.6825 31.631 94.0137C31.34 94.1454 31.0018 93.9698 30.9411 93.6563C30.862 93.2474 30.7893 92.8571 30.7193 92.4815L30.7189 92.4791L30.7188 92.4788C29.9967 88.6019 29.5664 86.2915 25.4019 81.2941C18.3693 74.147 15.4851 66.2026 15.8703 60.326C15.3704 60.202 14.9538 60.75 14.2994 61.6108C13.7671 62.3109 13.0776 63.2178 12.0581 64.1384C11.5959 55.9968 13.8415 50.2316 20.6358 44.1234C20.0158 51.5899 20.9156 54.8657 24.4481 59.3729C24.5212 59.4209 24.5943 59.4684 24.6657 59.5148C25.8176 60.2631 26.5277 60.7244 19.6826 58.4198C23.4549 70.6797 32.0252 77.0481 36.69 69.1606L52.2353 33.9797L41.6934 29.6835C40.1762 30.6695 38.217 30.9212 36.4144 30.1866C33.4897 28.9946 32.085 25.6574 33.2769 22.7327C34.4689 19.808 37.8061 18.4033 40.7308 19.5952C42.343 20.2522 43.4933 21.5611 44.0014 23.0934L55.0551 27.5982L58.2169 20.4427C56.7791 18.9088 55.8987 16.8461 55.8987 14.5779C55.8987 9.84044 59.7391 6 64.4766 6C69.214 6 73.0544 9.84044 73.0544 14.5779ZM61.1643 14.5779C61.1643 16.4072 62.6472 17.8901 64.4766 17.8901C66.3059 17.8901 67.7888 16.4072 67.7888 14.5779C67.7888 12.7485 66.3059 11.2656 64.4766 11.2656C62.6472 11.2656 61.1643 12.7485 61.1643 14.5779ZM68.0919 8.25561C62.874 5.64708 55.702 10.1619 58.4048 17.4371C55.3927 11.4147 61.23 4.82523 68.0919 8.25561ZM41.2488 21.2495C38.3895 19.8198 33.6236 22.2026 34.5773 26.9681C32.6705 23.1557 36.9053 19.0777 41.2488 21.2495ZM58.3896 25.2037L58.3272 25.348C53.2128 38.8994 49.184 47.7063 44.3297 58.3178C42.5938 62.1124 40.7524 66.1378 38.718 70.6934C45.9467 52.8713 50.1762 42.9073 58.3896 25.2037ZM13.609 60.3268C13.609 55.5609 13.609 52.7016 19.3276 46.9831C14.5621 51.7485 13.609 60.3268 13.609 60.3268Z" fill="black"/>
</g>
<defs>
<clipPath id="clip0_41_48">
<rect width="100" height="100" fill="white"/>
</clipPath>
</defs>
</svg>
